{
    "asset" : {
        "generator" : "Khronos glTF Blender I/O v1.6.16",
        "version" : "2.0"
    },
    "scene" : 0,
    "scenes" : [
        {
            "name" : "Scene",
            "nodes" : [
                0,
                1,
                2,
                3,
                4,
                5
            ]
        }
    ],
    "nodes" : [
        {
            "mesh" : 0,
            "name" : "Club",
            "rotation" : [
                0.7071068286895752,
                0,
                0,
                0.7071068286895752
            ],
            "scale" : [
                5.383752346038818,
                7.870678424835205,
                5.383752346038818
            ],
            "translation" : [
                0,
                0.30000001192092896,
                0
            ]
        },
        {
            "mesh" : 1,
            "name" : "MS-P4",
            "rotation" : [
                0.7071068286895752,
                0,
                0,
                0.7071068286895752
            ],
            "scale" : [
                5.383752346038818,
                7.870678424835205,
                5.383752346038818
            ],
            "translation" : [
                0,
                0.30000001192092896,
                0
            ]
        },
        {
            "mesh" : 2,
            "name" : "MS-P1",
            "rotation" : [
                0.7071068286895752,
                0,
                0,
                0.7071068286895752
            ],
            "scale" : [
                5.383752346038818,
                7.870678424835205,
                5.383752346038818
            ],
            "translation" : [
                0,
                0.30000001192092896,
                0
            ]
        },
        {
            "mesh" : 3,
            "name" : "MS-P2",
            "rotation" : [
                0.7071068286895752,
                0,
                0,
                0.7071068286895752
            ],
            "scale" : [
                5.383752346038818,
                7.870678424835205,
                5.383752346038818
            ],
            "translation" : [
                0,
                0.30000001192092896,
                0
            ]
        },
        {
            "mesh" : 4,
            "name" : "MS-P3",
            "rotation" : [
                0.7071068286895752,
                0,
                0,
                0.7071068286895752
            ],
            "scale" : [
                5.383752346038818,
                7.870678424835205,
                5.383752346038818
            ],
            "translation" : [
                0,
                0.30000001192092896,
                0
            ]
        },
        {
            "mesh" : 5,
            "name" : "SLIIT",
            "rotation" : [
                0.7071068286895752,
                0,
                0,
                0.7071068286895752
            ],
            "scale" : [
                5.383752346038818,
                7.870678424835205,
                5.383752346038818
            ],
            "translation" : [
                0,
                0.30000001192092896,
                0
            ]
        }
    ],
    "materials" : [
        {
            "doubleSided" : true,
            "name" : "Gray",
            "pbrMetallicRoughness" : {
                "baseColorFactor" : [
                    0.07421361654996872,
                    0.07421359419822693,
                    0.07421360164880753,
                    1
                ],
                "metallicFactor" : 0,
                "roughnessFactor" : 0
            }
        },
        {
            "doubleSided" : true,
            "name" : "Red",
            "pbrMetallicRoughness" : {
                "baseColorFactor" : [
                    0.8879234790802002,
                    0.08021970838308334,
                    0.015996314585208893,
                    1
                ],
                "metallicFactor" : 0,
                "roughnessFactor" : 0
            }
        },
        {
            "doubleSided" : true,
            "name" : "Light Blue",
            "pbrMetallicRoughness" : {
                "baseColorFactor" : [
                    0,
                    0.3712379038333893,
                    0.863157331943512,
                    1
                ],
                "metallicFactor" : 0,
                "roughnessFactor" : 0
            }
        },
        {
            "doubleSided" : true,
            "name" : "Light Green",
            "pbrMetallicRoughness" : {
                "baseColorFactor" : [
                    0.21223077178001404,
                    0.4910208582878113,
                    0,
                    1
                ],
                "metallicFactor" : 0,
                "roughnessFactor" : 0
            }
        },
        {
            "doubleSided" : true,
            "name" : "Yellow",
            "pbrMetallicRoughness" : {
                "baseColorFactor" : [
                    0.9646865725517273,
                    0.5028864145278931,
                    0.0012141615152359009,
                    1
                ],
                "metallicFactor" : 0,
                "roughnessFactor" : 0
            }
        },
        {
            "doubleSided" : true,
            "name" : "Blue",
            "pbrMetallicRoughness" : {
                "baseColorFactor" : [
                    0,
                    0,
                    0.20863689482212067,
                    1
                ],
                "metallicFactor" : 0,
                "roughnessFactor" : 0
            }
        }
    ],
    "meshes" : [
        {
            "name" : "Curve.003",
            "primitives" : [
                {
                    "attributes" : {
                        "POSITION" : 0,
                        "TEXCOORD_0" : 1
                    },
                    "indices" : 2,
                    "material" : 0
                }
            ]
        },
        {
            "name" : "Curve.002",
            "primitives" : [
                {
                    "attributes" : {
                        "POSITION" : 3,
                        "TEXCOORD_0" : 4
                    },
                    "indices" : 5,
                    "material" : 1
                }
            ]
        },
        {
            "name" : "Curve.004",
            "primitives" : [
                {
                    "attributes" : {
                        "POSITION" : 6,
                        "TEXCOORD_0" : 7
                    },
                    "indices" : 8,
                    "material" : 2
                }
            ]
        },
        {
            "name" : "Curve.005",
            "primitives" : [
                {
                    "attributes" : {
                        "POSITION" : 9,
                        "TEXCOORD_0" : 10
                    },
                    "indices" : 11,
                    "material" : 3
                }
            ]
        },
        {
            "name" : "Curve.006",
            "primitives" : [
                {
                    "attributes" : {
                        "POSITION" : 12,
                        "TEXCOORD_0" : 13
                    },
                    "indices" : 14,
                    "material" : 4
                }
            ]
        },
        {
            "name" : "Curve.008",
            "primitives" : [
                {
                    "attributes" : {
                        "POSITION" : 15,
                        "TEXCOORD_0" : 16
                    },
                    "indices" : 17,
                    "material" : 5
                }
            ]
        }
    ],
    "accessors" : [
        {
            "bufferView" : 0,
            "componentType" : 5126,
            "count" : 508,
            "max" : [
                0.12462940812110901,
                0.004000004846602678,
                0.054185595363378525
            ],
            "min" : [
                0.03505206108093262,
                -0.003999995533376932,
                0.026692349463701248
            ],
            "type" : "VEC3"
        },
        {
            "bufferView" : 1,
            "componentType" : 5126,
            "count" : 508,
            "type" : "VEC2"
        },
        {
            "bufferView" : 2,
            "componentType" : 5123,
            "count" : 3024,
            "type" : "SCALAR"
        },
        {
            "bufferView" : 3,
            "componentType" : 5126,
            "count" : 274,
            "max" : [
                0.031970664858818054,
                0.004000005777925253,
                0.05443985387682915
            ],
            "min" : [
                -0.03659610450267792,
                -0.003999993670731783,
                -0.020359158515930176
            ],
            "type" : "VEC3"
        },
        {
            "bufferView" : 4,
            "componentType" : 5126,
            "count" : 274,
            "type" : "VEC2"
        },
        {
            "bufferView" : 5,
            "componentType" : 5123,
            "count" : 1632,
            "type" : "SCALAR"
        },
        {
            "bufferView" : 6,
            "componentType" : 5126,
            "count" : 70,
            "max" : [
                -0.09406053274869919,
                0.004000004846602678,
                0.05350442975759506
            ],
            "min" : [
                -0.12177009135484695,
                -0.003999995533376932,
                -0.057271361351013184
            ],
            "type" : "VEC3"
        },
        {
            "bufferView" : 7,
            "componentType" : 5126,
            "count" : 70,
            "type" : "VEC2"
        },
        {
            "bufferView" : 8,
            "componentType" : 5123,
            "count" : 408,
            "type" : "SCALAR"
        },
        {
            "bufferView" : 9,
            "componentType" : 5126,
            "count" : 142,
            "max" : [
                -0.00698484480381012,
                0.004000004846602678,
                0.027119752019643784
            ],
            "min" : [
                -0.08911630511283875,
                -0.003999995533376932,
                -0.05750414729118347
            ],
            "type" : "VEC3"
        },
        {
            "bufferView" : 10,
            "componentType" : 5126,
            "count" : 142,
            "type" : "VEC2"
        },
        {
            "bufferView" : 11,
            "componentType" : 5123,
            "count" : 840,
            "type" : "SCALAR"
        },
        {
            "bufferView" : 12,
            "componentType" : 5126,
            "count" : 108,
            "max" : [
                0.027277737855911255,
                0.004000004846602678,
                -0.026393473148345947
            ],
            "min" : [
                -0.013058282434940338,
                -0.003999995533376932,
                -0.05672118067741394
            ],
            "type" : "VEC3"
        },
        {
            "bufferView" : 13,
            "componentType" : 5126,
            "count" : 108,
            "type" : "VEC2"
        },
        {
            "bufferView" : 14,
            "componentType" : 5123,
            "count" : 636,
            "type" : "SCALAR"
        },
        {
            "bufferView" : 15,
            "componentType" : 5126,
            "count" : 572,
            "max" : [
                0.10339462757110596,
                0.004000004846602678,
                0.021669048815965652
            ],
            "min" : [
                0.03842094540596008,
                -0.003999995533376932,
                0.0012639500200748444
            ],
            "type" : "VEC3"
        },
        {
            "bufferView" : 16,
            "componentType" : 5126,
            "count" : 572,
            "type" : "VEC2"
        },
        {
            "bufferView" : 17,
            "componentType" : 5123,
            "count" : 3372,
            "type" : "SCALAR"
        }
    ],
    "bufferViews" : [
        {
            "buffer" : 0,
            "byteLength" : 6096,
            "byteOffset" : 0
        },
        {
            "buffer" : 0,
            "byteLength" : 4064,
            "byteOffset" : 6096
        },
        {
            "buffer" : 0,
            "byteLength" : 6048,
            "byteOffset" : 10160
        },
        {
            "buffer" : 0,
            "byteLength" : 3288,
            "byteOffset" : 16208
        },
        {
            "buffer" : 0,
            "byteLength" : 2192,
            "byteOffset" : 19496
        },
        {
            "buffer" : 0,
            "byteLength" : 3264,
            "byteOffset" : 21688
        },
        {
            "buffer" : 0,
            "byteLength" : 840,
            "byteOffset" : 24952
        },
        {
            "buffer" : 0,
            "byteLength" : 560,
            "byteOffset" : 25792
        },
        {
            "buffer" : 0,
            "byteLength" : 816,
            "byteOffset" : 26352
        },
        {
            "buffer" : 0,
            "byteLength" : 1704,
            "byteOffset" : 27168
        },
        {
            "buffer" : 0,
            "byteLength" : 1136,
            "byteOffset" : 28872
        },
        {
            "buffer" : 0,
            "byteLength" : 1680,
            "byteOffset" : 30008
        },
        {
            "buffer" : 0,
            "byteLength" : 1296,
            "byteOffset" : 31688
        },
        {
            "buffer" : 0,
            "byteLength" : 864,
            "byteOffset" : 32984
        },
        {
            "buffer" : 0,
            "byteLength" : 1272,
            "byteOffset" : 33848
        },
        {
            "buffer" : 0,
            "byteLength" : 6864,
            "byteOffset" : 35120
        },
        {
            "buffer" : 0,
            "byteLength" : 4576,
            "byteOffset" : 41984
        },
        {
            "buffer" : 0,
            "byteLength" : 6744,
            "byteOffset" : 46560
        }
    ],
    "buffers" : [
        {
            "byteLength" : 53304,
            "uri" : "data:application/octet-stream;base64,"
        }
    ]
}
